<?xml version="1.0" encoding="UTF-8"?>
<svg width="316px" height="100px" viewBox="0 0 316 100" version="1.1" xmlns="http://www.w3.org/2000/svg" xmlns:xlink="http://www.w3.org/1999/xlink">
    <title>Artboard</title>
    <g id="Artboard" stroke="none" stroke-width="1" fill="none" fill-rule="evenodd">
        <g id="Group" transform="translate(0, 16)">
            <path d="M33.0005173,0.0144090866 L33.0005173,67.9855909 C14.6851202,67.4568498 0,52.4433717 0,34 C0,15.5566283 14.6851202,0.543150203 33.0005173,0.0144090866 Z M35,35.7564091 L62.9245389,51.8798866 C57.0950591,61.2903083 46.8013623,67.6445445 35.0004817,67.9855621 L35,35.7564091 Z M52.4566191,5.44078793 C61.81057,11.4983005 68,22.0263408 68,34 C68,39.8447061 66.525237,45.3449629 63.9275304,50.148951 L35.965,34.0044091 Z M35.0004817,0.0144379399 C40.7140329,0.179546043 46.0742792,1.75423637 50.7456134,4.40290168 L35,31.6744091 Z" id="Combined-Shape" fill="#04406F"></path>
            <path d="M35,0 L50.7422485,27.2360842 C48.462218,28.5483072 45.9945079,29.5788249 43.3391182,30.3276373 C40.6837285,31.0764497 37.9040224,31.5142039 35,31.6408998 L35,0 Z" id="Triangle" fill="#2DC55F" transform="translate(42.8711, 15.8204) scale(1, -1) translate(-42.8711, -15.8204)"></path>
        </g>
        <g id="Kingsway" transform="translate(78.5384, 25.343)" fill="#04406F" fill-rule="nonzero">
            <polygon id="Path" points="0 42.657 0 4.20282813 8.69420313 4.20282813 8.69420313 19.9143438 8.90992187 19.9143438 20.3715937 4.20282813 29.9268281 4.20282813 18.2936875 19.5502031 32.0646562 42.657 22.530625 42.657 13.1837344 26.4117188 8.69420313 32.3513594 8.69420313 42.657"></polygon>
            <path d="M34.1394588,42.657 L34.1394588,13.393 L42.8124588,13.393 L42.8124588,42.657 L34.1394588,42.657 Z M38.4464588,9.086 C36.9911254,9.086 35.8111254,8.673 34.9064588,7.847 C34.0017921,7.021 33.5494588,5.91966667 33.5494588,4.543 C33.5494588,3.16633333 34.0017921,2.065 34.9064588,1.239 C35.8111254,0.413 36.9911254,0 38.4464588,0 C39.9017921,0 41.0817921,0.413 41.9864588,1.239 C42.8911254,2.065 43.3434588,3.16633333 43.3434588,4.543 C43.3434588,5.91966667 42.8911254,7.021 41.9864588,7.847 C41.0817921,8.673 39.9017921,9.086 38.4464588,9.086 Z" id="Shape"></path>
            <path d="M49.0284967,42.657 L49.0284967,13.385625 L56.1048092,13.385625 L56.7298404,17.0915625 L56.9446373,17.0915625 C58.1799498,15.8888229 59.5583066,14.8524818 61.0797076,13.9825391 C62.6011086,13.1125964 64.3577414,12.677625 66.349606,12.677625 C69.5521998,12.677625 71.866106,13.7310208 73.2913248,15.8378125 C74.7165435,17.9446042 75.4291529,20.827 75.4291529,24.485 L75.4291529,42.657 L66.7561529,42.657 L66.7561529,25.5958594 C66.7561529,23.4866094 66.4682206,22.0375755 65.892356,21.2487578 C65.3164914,20.4599401 64.3924654,20.0655313 63.1202779,20.0655313 C62.0312362,20.0655313 61.0993743,20.31075 60.324692,20.8011875 C59.5500097,21.291625 58.6756112,21.9947083 57.7014967,22.9104375 L57.7014967,42.657 L49.0284967,42.657 Z" id="Path"></path>
            <path d="M91.8334364,55.1013906 C89.5637801,55.1013906 87.4987801,54.8400391 85.6384364,54.3173359 C83.7780926,53.7946328 82.3046291,52.9918333 81.2180458,51.9089375 C80.1314624,50.8260417 79.5881708,49.4171094 79.5881708,47.6821406 C79.5881708,46.4560469 79.9473947,45.3548672 80.6658426,44.3786016 C81.3842906,43.4023359 82.408801,42.5393073 83.7393739,41.7895156 L83.7393739,41.5535156 C82.998801,41.0237448 82.3682385,40.3609167 81.8476864,39.5650313 C81.3271343,38.7691458 81.0668583,37.7753646 81.0668583,36.5836875 C81.0668583,35.5124688 81.3821395,34.4937969 82.012702,33.5276719 C82.6432645,32.5615469 83.4154885,31.7521406 84.3293739,31.0994531 L84.3293739,30.8634531 C83.3017906,30.1419323 82.3900562,29.1188047 81.5941708,27.7940703 C80.7982853,26.4693359 80.4003426,24.9613021 80.4003426,23.2699688 C80.4003426,20.9284063 80.9708296,18.9697292 82.1118036,17.3939375 C83.2527775,15.8181458 84.7452932,14.6381458 86.5893505,13.8539375 C88.4334077,13.0697292 90.4060666,12.677625 92.507327,12.677625 C93.325952,12.677625 94.122913,12.7383151 94.8982098,12.8596953 C95.6735067,12.9810755 96.3874989,13.1563854 97.0401864,13.385625 L107.744077,13.385625 L107.744077,19.7041563 L102.844311,19.7041563 L102.844311,19.9401563 C103.237645,20.4539479 103.53372,21.0126042 103.732538,21.616125 C103.931356,22.2196458 104.030765,22.9006042 104.030765,23.659 C104.030765,25.8708854 103.516973,27.6935859 102.48939,29.1271016 C101.461806,30.5606172 100.074538,31.6307604 98.3275848,32.3375313 C96.5806317,33.0443021 94.6405458,33.3976875 92.507327,33.3976875 C91.9726395,33.3976875 91.4104494,33.3525156 90.8207567,33.2621719 C90.231064,33.1718281 89.6018843,33.027401 88.9332176,32.8288906 C88.5951968,33.145401 88.3407593,33.4534609 88.1699051,33.7530703 C87.999051,34.0526797 87.9136239,34.47075 87.9136239,35.0072813 C87.9136239,35.7122083 88.2484182,36.2456667 88.9180067,36.6076563 C89.5875952,36.9696458 90.7124364,37.1506406 92.2925301,37.1506406 L97.0392645,37.1506406 C100.640108,37.1506406 103.403121,37.7349557 105.328304,38.9035859 C107.253486,40.0722161 108.216077,41.9683594 108.216077,44.5920156 C108.216077,46.619526 107.54741,48.4239427 106.210077,50.0052656 C104.872744,51.5865885 102.979366,52.8312734 100.529944,53.7393203 C98.0805223,54.6473672 95.1816864,55.1013906 91.8334364,55.1013906 Z M92.507327,28.1476094 C93.2681812,28.1476094 93.9468348,27.963849 94.543288,27.5963281 C95.1397411,27.2288073 95.6154286,26.6830573 95.9703505,25.9590781 C96.3252723,25.235099 96.5027333,24.3387292 96.5027333,23.2699688 C96.5027333,21.6855729 96.1247645,20.4962005 95.368827,19.7018516 C94.6128895,18.9075026 93.6590562,18.5103281 92.507327,18.5103281 C91.3555978,18.5103281 90.4016109,18.9075026 89.6453661,19.7018516 C88.8891213,20.4962005 88.5109989,21.6855729 88.5109989,23.2699688 C88.5109989,24.3387292 88.6884598,25.235099 89.0433817,25.9590781 C89.3983036,26.6830573 89.8741447,27.2288073 90.4709051,27.5963281 C91.0676656,27.963849 91.7464728,28.1476094 92.507327,28.1476094 Z M93.215327,49.6577188 C94.5170145,49.6577188 95.6681291,49.5028438 96.6686708,49.1930938 C97.6692124,48.8833438 98.4597202,48.4545182 99.0401942,47.9066172 C99.6206682,47.3587161 99.9109051,46.7470521 99.9109051,46.071625 C99.9109051,45.1325417 99.5252541,44.5196484 98.753952,44.2329453 C97.9826499,43.9462422 96.8810093,43.8028906 95.4490301,43.8028906 L92.4105301,43.8028906 C91.4106031,43.8028906 90.6005822,43.7717005 89.9804676,43.7093203 C89.3603531,43.6469401 88.802926,43.5533698 88.3081864,43.4286094 C87.7673531,43.886474 87.3686421,44.3435703 87.1120536,44.7998984 C86.855465,45.2562266 86.7271708,45.7563438 86.7271708,46.30025 C86.7271708,47.4101875 87.3233166,48.24725 88.5156083,48.8114375 C89.7078999,49.375625 91.2744728,49.6577188 93.215327,49.6577188 Z" id="Shape"></path>
            <path d="M120.165256,43.365 C118.215183,43.365 116.22255,42.986724 114.187357,42.2301719 C112.152164,41.4736198 110.398604,40.3919531 108.926677,38.9851719 L112.614177,34.1102969 C113.956427,35.1581615 115.285157,35.8932031 116.600365,36.3154219 C117.915573,36.7376406 119.175469,36.94875 120.380052,36.94875 C121.670677,36.94875 122.609761,36.7199714 123.197302,36.2624141 C123.784844,35.8048568 124.078615,35.1944219 124.078615,34.4311094 C124.078615,33.7882552 123.820029,33.2481901 123.302857,32.8109141 C122.785685,32.373638 122.099657,31.9850677 121.244771,31.6452031 C120.389886,31.3053385 119.428063,30.9387396 118.359302,30.5454063 C116.969115,30.0340729 115.682792,29.3907578 114.500334,28.6154609 C113.317875,27.8401641 112.365271,26.8961641 111.642521,25.7834609 C110.919771,24.6707578 110.558396,23.356625 110.558396,21.8410625 C110.558396,19.0963333 111.582907,16.8829115 113.631927,15.2007969 C115.680948,13.5186823 118.384193,12.677625 121.741662,12.677625 C123.858901,12.677625 125.796836,13.0240964 127.555466,13.7170391 C129.314097,14.4099818 130.814756,15.2991302 132.057443,16.3844844 L128.370865,21.2593594 C127.297188,20.4935885 126.229349,19.9412318 125.167349,19.6022891 C124.105349,19.2633464 123.053797,19.093875 122.012693,19.093875 C120.884318,19.093875 120.044951,19.3094401 119.494591,19.7405703 C118.944232,20.1717005 118.669052,20.7351198 118.669052,21.4308281 C118.669052,21.9882552 118.862185,22.4607161 119.248451,22.8482109 C119.634716,23.2357057 120.232091,23.5941615 121.040576,23.9235781 C121.84906,24.2529948 122.872188,24.6180573 124.109959,25.0187656 C125.604625,25.5110469 126.966235,26.1431458 128.194787,26.9150625 C129.423339,27.6869792 130.396224,28.6426563 131.113443,29.7820938 C131.830662,30.9215313 132.189271,32.3021927 132.189271,33.9240781 C132.189271,35.689776 131.72987,37.2841589 130.811068,38.7072266 C129.892266,40.1302943 128.542026,41.2623568 126.760349,42.1034141 C124.978672,42.9444714 122.780308,43.365 120.165256,43.365 Z" id="Path"></path>
            <path d="M141.183581,42.657 L133.843612,13.3902344 L142.523987,13.3902344 L145.285003,26.9491719 C145.55542,28.3350573 145.786657,29.7450651 145.978714,31.1791953 C146.170771,32.6133255 146.376196,34.1407188 146.594987,35.761375 L146.830987,35.761375 C147.084196,34.1407188 147.338633,32.6077943 147.5943,31.1626016 C147.849966,29.7174089 148.137284,28.3129323 148.456253,26.9491719 L151.534393,13.3902344 L159.473581,13.3902344 L162.6688,26.9491719 C163.005591,28.3350573 163.311654,29.7450651 163.586987,31.1791953 C163.862321,32.6133255 164.137654,34.1407188 164.412987,35.761375 L164.648987,35.761375 C164.902196,34.1407188 165.120373,32.6133255 165.303518,31.1791953 C165.486664,29.7450651 165.704841,28.3350573 165.95805,26.9491719 L168.719987,13.3902344 L176.795612,13.3902344 L169.783831,42.657 L159.36019,42.657 L156.87205,30.9888281 C156.618841,29.6471927 156.369935,28.2954167 156.125331,26.9335 C155.880727,25.5715833 155.640425,24.0126927 155.404425,22.2568281 L155.168425,22.2568281 C154.976675,24.0126927 154.7628,25.5715833 154.5268,26.9335 C154.2908,28.2954167 154.037284,29.6471927 153.766253,30.9888281 L151.345409,42.657 L141.183581,42.657 Z" id="Path"></path>
            <path d="M187.418594,43.365 C185.638761,43.365 184.094313,42.9724349 182.785251,42.1873047 C181.476188,41.4021745 180.463355,40.3429401 179.746751,39.0096016 C179.030146,37.676263 178.671844,36.1860521 178.671844,34.5389688 C178.671844,31.3843125 179.978141,28.949026 182.590735,27.2331094 C185.203329,25.5171927 189.402162,24.3556302 195.187235,23.7484219 C195.125777,22.919349 194.933412,22.1964453 194.610141,21.5797109 C194.28687,20.9629766 193.791363,20.4859063 193.123618,20.1485 C192.455873,19.8110938 191.594074,19.6423906 190.538219,19.6423906 C189.32073,19.6423906 188.082959,19.8594922 186.824907,20.2936953 C185.566855,20.7278984 184.222761,21.3493958 182.792626,22.1581875 L179.720016,16.4987969 C180.958402,15.7422448 182.25087,15.0732708 183.597422,14.491875 C184.943975,13.9104792 186.336313,13.4635234 187.774438,13.1510078 C189.212563,12.8384922 190.698626,12.6822344 192.232626,12.6822344 C194.719844,12.6822344 196.826021,13.1640677 198.551157,14.1277344 C200.276292,15.091401 201.591654,16.5514974 202.497243,18.5080234 C203.402831,20.4645495 203.855626,22.9430104 203.855626,25.9434063 L203.855626,42.657 L196.763641,42.657 L196.159813,39.6692031 L195.923813,39.6692031 C194.674365,40.7484115 193.36054,41.6341797 191.982337,42.3265078 C190.604133,43.0188359 189.082886,43.365 187.418594,43.365 Z M190.335407,36.5634063 C191.316896,36.5634063 192.182537,36.3506068 192.932329,35.9250078 C193.68212,35.4994089 194.433756,34.9052604 195.187235,34.1425625 L195.187235,29.1957813 C193.124693,29.4661979 191.497123,29.8240391 190.304524,30.2693047 C189.111925,30.7145703 188.262725,31.2405 187.756922,31.8470938 C187.25112,32.4536875 186.998219,33.1275781 186.998219,33.8687656 C186.998219,34.7795781 187.30336,35.456388 187.913641,35.8991953 C188.523922,36.3420026 189.331178,36.5634063 190.335407,36.5634063 Z" id="Shape"></path>
            <path d="M213.030223,54.1020781 C212.137233,54.1020781 211.371923,54.0430781 210.734293,53.9250781 C210.096663,53.8070781 209.47117,53.6371458 208.857816,53.4152812 L210.420394,46.9990312 C210.864738,47.1170312 211.228571,47.1927786 211.511894,47.2262734 C211.795217,47.2597682 212.081613,47.2765156 212.371082,47.2765156 C213.816582,47.2765156 214.941884,46.914526 215.746988,46.1905469 C216.552092,45.4665677 217.133795,44.5474583 217.492098,43.4332187 L217.929066,41.9065937 L206.636098,13.385625 L215.350582,13.385625 L219.534973,25.9802812 C219.9744,27.2899583 220.374032,28.6366641 220.733871,30.0203984 C221.093709,31.4041328 221.464457,32.8224375 221.846113,34.2753125 L222.082113,34.2753125 C222.424436,32.8869687 222.758616,31.5010833 223.084652,30.1176562 C223.410689,28.7342292 223.754087,27.3551042 224.114848,25.9802812 L227.667754,13.385625 L235.972926,13.385625 L225.811098,42.974125 C224.885535,45.4017292 223.873777,47.443375 222.775824,49.0990625 C221.677871,50.75475 220.352522,52.0025078 218.799777,52.8423359 C217.247032,53.6821641 215.323848,54.1020781 213.030223,54.1020781 Z" id="Path"></path>
        </g>
    </g>
</svg>